<svg height="640pt" viewBox="-20 -40 640 640" width="640pt" xmlns="http://www.w3.org/2000/svg"><path d="m300 98.667969c-27.613281 0-50-22.390625-50-50 0-27.613281 22.386719-50 50-50s50 22.386719 50 50c-.035156 27.601562-22.398438 49.964843-50 50zm0-80c-16.566406 0-30 13.429687-30 30 0 16.566406 13.433594 30 30 30s30-13.433594 30-30c0-16.570313-13.433594-30-30-30zm0 0"/><path d="m480 148.667969c-27.613281 0-50-22.390625-50-50 0-27.613281 22.386719-50 50-50s50 22.386719 50 50c-.035156 27.601562-22.398438 49.964843-50 50zm0-80c-16.566406 0-30 13.429687-30 30 0 16.566406 13.433594 30 30 30s30-13.433594 30-30c0-16.570313-13.433594-30-30-30zm0 0"/><path d="m120 148.667969c-27.613281 0-50-22.390625-50-50 0-27.613281 22.386719-50 50-50s50 22.386719 50 50c-.035156 27.601562-22.398438 49.964843-50 50zm0-80c-16.566406 0-30 13.429687-30 30 0 16.566406 13.433594 30 30 30s30-13.433594 30-30c0-16.570313-13.433594-30-30-30zm0 0"/><path d="m390 188.667969h-20v-10c-.035156-27.605469-22.398438-49.96875-50-50h-40c-27.601562.03125-49.964844 22.394531-50 50v10h-20v-10c.042969-38.644531 31.359375-69.957031 70-70h40c38.640625.042969 69.957031 31.355469 70 70zm0 0"/><path d="m580 178.667969v170c-.035156 27.601562-22.398438 49.964843-50 50h-110v20h20v40h19.742188l.257812 80h-30v20h80v-20h-30l-.230469-80h20.230469v-40h30c38.640625-.046875 69.957031-31.359375 70-70v-170zm-100 260h-20v-20h20zm0 0"/><path d="m520 388.667969c27.601562-.035157 49.964844-22.398438 50-50v-110c-.042969-38.644531-31.359375-69.957031-70-70h-75.058594l-55.601562 60h-59.339844v30c0 16.566406 13.433594 30 30 30h58.871094l41.128906-37.390625v77.390625h-50c-27.601562.03125-49.964844 22.394531-50 50v190h20v-190c0-16.570313 13.433594-30 30-30h70v-142.613281l-68.871094 62.613281h-51.128906c-5.523438 0-10-4.480469-10-10v-10h48.070312l55.601563-60h66.328125c27.601562.03125 49.964844 22.394531 50 50v110c0 16.566406-13.433594 30-30 30h-100c-16.566406 0-30 13.429687-30 30v160h20v-160c0-5.523438 4.476562-10 10-10zm0 0"/><path d="m210 318.667969h-50v-77.390625l41.128906 37.390625h58.871094c16.566406 0 30-13.433594 30-30v-30h-59.339844l-55.601562-60h-75.058594c-38.640625.042969-69.957031 31.355469-70 70v110c.035156 27.601562 22.398438 49.964843 50 50h100c5.523438 0 10 4.476562 10 10v160h20v-160c0-16.570313-13.433594-30-30-30h-100c-16.566406 0-30-13.433594-30-30v-110c.035156-27.605469 22.398438-49.96875 50-50h66.328125l55.601563 60h48.070312v10c0 5.519531-4.476562 10-10 10h-51.128906l-68.871094-62.613281v142.613281h70c16.566406 0 30 13.429687 30 30v190h20v-190c-.035156-27.605469-22.398438-49.96875-50-50zm0 0"/><path d="m70 398.667969c-27.601562-.035157-49.964844-22.398438-50-50v-170h-20v170c.0429688 38.640625 31.359375 69.953125 70 70h30v40h20.257812l-.257812 80h-30v20h80v-20h-30l.230469-80h19.769531v-40h20v-20zm70 40h-20v-20h20zm0 0"/><path d="m420 288.667969h-240v20h90c.054688 12.664062 8.054688 23.933593 20 28.15625v221.84375h20v-221.84375c11.945312-4.222657 19.945312-15.492188 20-28.15625h90zm-120 30c-5.523438 0-10-4.480469-10-10h20c0 5.519531-4.476562 10-10 10zm0 0"/></svg>