<svg id="Layer_3" enable-background="new 0 0 64 64" height="512" viewBox="0 0 64 64" width="512" xmlns="http://www.w3.org/2000/svg"><path d="m20.574 20.388-.574-.404-.574.403c-3.367 2.364-7.343 3.613-11.497 3.613h-2.929v11.687c0 9.94 5.587 18.706 14.579 22.876l.421.195.421-.195c8.992-4.17 14.579-12.936 14.579-22.876v-11.687h-2.929c-4.154 0-8.13-1.249-11.497-3.612zm12.426 15.299c0 8.997-4.969 16.948-13 20.861-8.031-3.913-13-11.864-13-20.861v-9.687h.929c4.334 0 8.492-1.237 12.071-3.586 3.579 2.349 7.737 3.586 12.071 3.586h.929z"/><path d="m63 23.777v-7.555l-3.729-.95c-.292-.947-.67-1.862-1.128-2.73l1.963-3.306-5.343-5.343-3.306 1.963c-.868-.458-1.783-.836-2.73-1.128l-.95-3.728h-7.555l-.95 3.729c-.947.292-1.862.67-2.73 1.128l-3.306-1.963-5.343 5.343 1.963 3.306c-.458.868-.836 1.783-1.128 2.73l-3.728.95v2.128c-1.568-.77-3.022-1.786-4.293-3.058l-.707-.707-.707.707c-3.035 3.035-7.071 4.707-11.364 4.707h-6.929v15.687c0 12.148 7.315 22.843 18.638 27.245l.362.141.362-.142c11.323-4.402 18.638-15.096 18.638-27.244v-.518c.091.03.182.074.272.102l.951 3.729h7.555l.95-3.729c.947-.292 1.862-.67 2.73-1.128l3.306 1.963 5.343-5.343-1.963-3.306c.458-.868.836-1.783 1.128-2.73zm-26 11.91c0 11.188-6.659 21.051-17 25.237-10.341-4.187-17-14.05-17-25.237v-13.687h4.929c4.501 0 8.751-1.634 12.071-4.622 3.32 2.988 7.57 4.622 12.071 4.622h4.929zm1-15.687c0-3.309 2.691-6 6-6s6 2.691 6 6-2.691 6-6 6c-2.038 0-3.883-1.016-5-2.716v-3.284zm1 6.23c1.394 1.128 3.135 1.77 5 1.77 4.411 0 8-3.589 8-8s-3.589-8-8-8-8 3.589-8 8h-2c0-5.514 4.486-10 10-10s10 4.486 10 10-4.486 10-10 10c-1.766 0-3.477-.487-5-1.373zm18.656-3.155-.152.564c-.316 1.177-.78 2.3-1.379 3.337l-.292.507 1.76 2.966-3.144 3.144-2.966-1.76-.507.292c-1.037.599-2.16 1.062-3.337 1.379l-.564.152-.852 3.344h-4.445l-.853-3.345-.565-.151c-.446-.12-.902-.279-1.359-.455v-2.144c1.562.719 3.262 1.095 4.999 1.095 6.617 0 12-5.383 12-12s-5.383-12-12-12c-6.616 0-11.998 5.381-12 11.997-1.727-.007-3.406-.296-5-.825v-1.394l3.344-.853.152-.564c.316-1.177.78-2.3 1.379-3.337l.292-.507-1.76-2.966 3.144-3.144 2.966 1.76.507-.292c1.037-.599 2.16-1.062 3.337-1.379l.564-.152.852-3.344h4.445l.853 3.344.564.152c1.177.316 2.3.78 3.337 1.379l.507.292 2.966-1.76 3.144 3.144-1.76 2.966.292.507c.599 1.037 1.062 2.16 1.379 3.337l.152.564 3.344.852v4.445z"/><path d="m11 41.414 6.586 6.586h11.414v-20h-18zm6 3.172-2.586-2.586h2.586zm10-14.586v16h-8v-6h-6v-10z"/><path d="m15 32h10v2h-10z"/><path d="m15 36h10v2h-10z"/><path d="m21 40h4v2h-4z"/></svg>