<?xml version="1.0" encoding="iso-8859-1"?>
<!-- Generator: Adobe Illustrator 19.0.0, SVG Export Plug-In . SVG Version: 6.00 Build 0)  -->
<svg version="1.1" id="Capa_1" xmlns="http://www.w3.org/2000/svg" xmlns:xlink="http://www.w3.org/1999/xlink" x="0px" y="0px"
	 viewBox="0 0 512 512" style="enable-background:new 0 0 512 512;" xml:space="preserve">
<g>
	<g>
		<polygon points="198.958,124.25 180.915,190.488 217,190.488 		"/>
	</g>
</g>
<g>
	<g>
		<path d="M427.651,0H84.349c-17.055,0-30.93,13.875-30.93,30.93v270.118h405.162V30.93C458.581,13.875,444.706,0,427.651,0z
			 M262.849,253.513c-5.357,3.131-10.917,4.696-16.683,4.696c-7.087,0-11.288-2.387-12.605-7.168l-8.404-30.895h-52.152
			l-8.404,30.895c-1.32,4.781-5.523,7.168-12.604,7.168c-5.77,0-11.331-1.565-16.684-4.696c-5.357-3.128-8.033-6.835-8.033-11.122
			c0-0.495,0.162-1.397,0.495-2.719l45.972-150.768c1.316-4.116,4.325-7.291,9.022-9.515c4.697-2.224,10.091-3.337,16.189-3.337
			c6.094,0,11.492,1.112,16.189,3.337c4.695,2.224,7.7,5.399,9.022,9.515l46.218,150.768c0.328,1.32,0.495,2.224,0.495,2.719
			C270.882,246.678,268.202,250.385,262.849,253.513z M381.36,246.345c0,3.297-1.773,6.097-5.314,8.404
			c-3.546,2.31-8.033,3.461-13.47,3.461c-4.781,0-8.817-1.231-12.111-3.696c-3.299-2.464-4.943-5.453-4.943-8.971v-5.808
			c-11.369,13.965-23.893,20.946-37.568,20.946c-9.064,0-16.602-2.916-22.615-8.754c-6.017-5.835-9.022-14.331-9.022-25.488
			c0-13.173,4.982-22.457,14.954-27.856c9.967-5.395,24.26-8.095,42.882-8.095h8.898V187.9c-0.001-5.179-1.484-9.666-4.45-13.466
			c-2.966-3.796-7.661-5.696-14.088-5.696c-7.908,0-14.419,1.525-19.526,4.572c-5.109,3.051-8.241,4.572-9.392,4.572
			c-3.954,0-7.087-1.935-9.392-5.808c-2.31-3.87-3.461-8.28-3.461-13.223c0-5.438,4.572-10.092,13.718-13.965
			c9.145-3.87,18.661-5.808,28.547-5.808c18.946,0,33.077,4.615,42.388,13.841c9.307,9.23,13.964,20.761,13.964,34.603V246.345z"/>
	</g>
</g>
<g>
	<g>
		<path d="M342.063,209.025c-5.44,0-9.931,0.232-13.471,0.688c-3.546,0.459-6.716,1.646-9.516,3.553
			c-2.804,1.908-4.201,4.619-4.201,8.134c0,6.418,3.213,9.623,9.639,9.623c4.116,0,8.238-2.135,12.358-6.415
			c4.116-4.279,6.18-9.168,6.18-14.668v-0.915H342.063z"/>
	</g>
</g>
<g>
	<g>
		<path d="M53.419,331.08v149.99c0,17.055,13.875,30.93,30.93,30.93h343.302c17.055,0,30.93-13.875,30.93-30.93V331.08H53.419z
			 M139.209,366.667h77.887c8.293,0,15.016,6.723,15.016,15.016c0,8.293-6.723,15.016-15.016,15.016h-77.887
			c-8.293,0-15.016-6.723-15.016-15.016C124.193,373.39,130.917,366.667,139.209,366.667z M277.499,444.494H139.209
			c-8.293,0-15.016-6.723-15.016-15.016s6.723-15.016,15.016-15.016h138.289c8.293,0,15.016,6.723,15.016,15.016
			S285.792,444.494,277.499,444.494z M371.754,444.494h-37.354c-8.293,0-15.016-6.723-15.016-15.016s6.723-15.016,15.016-15.016
			h37.354c8.293,0,15.016,6.723,15.016,15.016S380.047,444.494,371.754,444.494z"/>
	</g>
</g>
<g>
</g>
<g>
</g>
<g>
</g>
<g>
</g>
<g>
</g>
<g>
</g>
<g>
</g>
<g>
</g>
<g>
</g>
<g>
</g>
<g>
</g>
<g>
</g>
<g>
</g>
<g>
</g>
<g>
</g>
</svg>
