<?xml version="1.0" encoding="iso-8859-1"?>
<!-- Generator: Adobe Illustrator 19.0.0, SVG Export Plug-In . SVG Version: 6.00 Build 0)  -->
<svg xmlns="http://www.w3.org/2000/svg" xmlns:xlink="http://www.w3.org/1999/xlink" version="1.1" id="Layer_1" x="0px" y="0px" viewBox="0 0 512 512" style="enable-background:new 0 0 512 512;" xml:space="preserve" width="512" height="512">
<g>
	<path d="M462,0H202c-27.57,0-50,22.43-50,50v90H50c-27.57,0-50,22.43-50,50v212c0,27.57,22.43,50,50,50h20v50   c0,4.044,2.437,7.691,6.173,9.239c1.237,0.513,2.536,0.762,3.825,0.762c2.602,0,5.16-1.017,7.073-2.929L144.142,452H310   c27.57,0,50-22.43,50-50v-90h20v50c0,4.044,2.437,7.691,6.173,9.239c1.237,0.513,2.536,0.762,3.825,0.762   c2.602,0,5.16-1.017,7.073-2.929L454.142,312H470c25.514,0,42-19.626,42-50V50C512,22.43,489.57,0,462,0z M340,402   c0,16.542-13.458,30-30,30H140c-2.652,0-5.196,1.054-7.071,2.929L90,477.858V442c0-5.523-4.477-10-10-10H50   c-16.542,0-30-13.458-30-30V190c0-16.542,13.458-30,30-30h260c16.542,0,30,13.458,30,30V402z M492,262c0,11.204-2.858,30-22,30h-20   c-2.652,0-5.196,1.054-7.071,2.929L400,337.858V302c0-5.523-4.477-10-10-10h-30v-72h62c5.523,0,10-4.477,10-10s-4.477-10-10-10h-62   v-10c0-27.57-22.43-50-50-50H172V50c0-16.542,13.458-30,30-30h260c16.542,0,30,13.458,30,30V262z"/>
	<path d="M422,80H242c-5.523,0-10,4.477-10,10s4.477,10,10,10h180c5.523,0,10-4.477,10-10S427.523,80,422,80z"/>
	<path d="M422,140h-40c-5.523,0-10,4.477-10,10s4.477,10,10,10h40c5.523,0,10-4.477,10-10S427.523,140,422,140z"/>
	<path d="M90,240c5.51,0,10-4.49,10-10c0-5.51-4.49-10-10-10c-5.51,0-10,4.49-10,10C80,235.51,84.49,240,90,240z"/>
	<path d="M270,220H130c-5.51,0-10,4.49-10,10c0,5.51,4.49,10,10,10h140c5.51,0,10-4.49,10-10C280,224.49,275.51,220,270,220z"/>
	<path d="M270,280H170c-5.523,0-10,4.477-10,10s4.477,10,10,10h100c5.523,0,10-4.477,10-10S275.523,280,270,280z"/>
	<path d="M90,300h40c5.523,0,10-4.477,10-10s-4.477-10-10-10H90c-5.523,0-10,4.477-10,10S84.477,300,90,300z"/>
	<path d="M190,340H92c-5.523,0-10,4.477-10,10s4.477,10,10,10h98c5.523,0,10-4.477,10-10S195.523,340,190,340z"/>
</g>















</svg>
