<svg height="496pt" viewBox="0 0 496 496" width="496pt" xmlns="http://www.w3.org/2000/svg"><path d="m176 104h10.105469c3.648437 0 6.832031-2.472656 7.75-6.007812 1.242187-4.832032 3.097656-9.433594 5.496093-13.640626 1.785157-3.136718 1.25-7.070312-1.296874-9.617187l-10.742188-10.734375 12.6875-12.6875 10.734375 10.734375c2.546875 2.546875 6.480469 3.066406 9.617187 1.296875 4.207032-2.398438 8.808594-4.246094 13.640626-5.496094 3.535156-.910156 6.007812-4.09375 6.007812-7.742187v-10.105469h16v10.105469c0 3.648437 2.472656 6.832031 6.007812 7.75 4.832032 1.242187 9.433594 3.097656 13.640626 5.496093 3.136718 1.769532 7.0625 1.25 9.617187-1.296874l10.734375-10.742188 12.6875 12.6875-10.734375 10.734375c-2.546875 2.546875-3.082031 6.488281-1.296875 9.617187 2.398438 4.199219 4.246094 8.800782 5.503906 13.65625.917969 3.519532 4.097656 5.992188 7.742188 5.992188h10.097656v16h16v-24c0-4.425781-3.574219-8-8-8h-12.167969c-.726562-2.070312-1.542969-4.097656-2.457031-6.0625l12.28125-12.28125c3.128906-3.128906 3.128906-8.183594 0-11.3125l-24-24c-3.128906-3.128906-8.183594-3.128906-11.3125 0l-12.28125 12.28125c-1.964844-.90625-4-1.730469-6.0625-2.449219v-12.175781c0-4.425781-3.574219-8-8-8h-32c-4.425781 0-8 3.574219-8 8v12.175781c-2.0625.71875-4.097656 1.535157-6.0625 2.449219l-12.28125-12.28125c-3.128906-3.128906-8.183594-3.128906-11.3125 0l-24 24c-3.128906 3.128906-3.128906 8.183594 0 11.3125l12.28125 12.28125c-.90625 1.964844-1.730469 4-2.449219 6.0625h-12.175781c-4.425781 0-8 3.574219-8 8v24h16zm0 0"/><path d="m288 120v-8c0-22.054688-17.945312-40-40-40s-40 17.945312-40 40v8h16v-8c0-13.230469 10.769531-24 24-24s24 10.769531 24 24v8zm0 0"/><path d="m160 280h-16c0 8.824219-7.175781 16-16 16s-16-7.175781-16-16h-16c0 17.648438 14.351562 32 32 32s32-14.351562 32-32zm0 0"/><path d="m108 256c6.617188 0 12-5.382812 12-12s-5.382812-12-12-12-12 5.382812-12 12 5.382812 12 12 12zm0-16c2.199219 0 4 1.800781 4 4s-1.800781 4-4 4-4-1.800781-4-4 1.800781-4 4-4zm0 0"/><path d="m148 256c6.617188 0 12-5.382812 12-12s-5.382812-12-12-12-12 5.382812-12 12 5.382812 12 12 12zm0-16c2.199219 0 4 1.800781 4 4s-1.800781 4-4 4-4-1.800781-4-4 1.800781-4 4-4zm0 0"/><path d="m120 416h16v16h-16zm0 0"/><path d="m120 448h16v16h-16zm0 0"/><path d="m400 280h-16c0 8.824219-7.175781 16-16 16s-16-7.175781-16-16h-16c0 17.648438 14.351562 32 32 32s32-14.351562 32-32zm0 0"/><path d="m388 256c6.617188 0 12-5.382812 12-12s-5.382812-12-12-12-12 5.382812-12 12 5.382812 12 12 12zm0-16c2.199219 0 4 1.800781 4 4s-1.800781 4-4 4-4-1.800781-4-4 1.800781-4 4-4zm0 0"/><path d="m348 256c6.617188 0 12-5.382812 12-12s-5.382812-12-12-12-12 5.382812-12 12 5.382812 12 12 12zm0-16c2.199219 0 4 1.800781 4 4s-1.800781 4-4 4-4-1.800781-4-4 1.800781-4 4-4zm0 0"/><path d="m450.015625 344.96875-47.703125-8.671875-.511719-2.050781c18.09375-11.316406 30.199219-31.375 30.199219-54.246094v-20.6875l29.65625-29.65625c1.503906-1.496094 2.34375-3.527344 2.34375-5.65625v-48c0-4.425781-3.574219-8-8-8h-32v-8c0-4.425781-3.574219-8-8-8h-100.6875l-21.65625-21.65625c-2.289062-2.289062-5.726562-2.984375-8.71875-1.734375-2.992188 1.230469-4.9375 4.160156-4.9375 7.390625v64c0 2.128906.839844 4.160156 2.34375 5.65625l21.65625 21.65625v52.6875c0 22.871094 12.105469 42.929688 30.199219 54.238281l-.511719 2.050781-47.703125 8.671876c-16.367187 2.96875-29.921875 12.886718-37.984375 26.351562-8.0625-13.464844-21.617188-23.382812-37.984375-26.351562l-47.703125-8.671876-.511719-2.050781c18.09375-11.308593 30.199219-31.367187 30.199219-54.238281v-52.6875l21.65625-21.65625c1.503906-1.496094 2.34375-3.527344 2.34375-5.65625v-64c0-3.230469-1.945312-6.160156-4.9375-7.390625-2.992188-1.25-6.421875-.5625-8.71875 1.734375l-21.65625 21.65625h-100.6875c-4.425781 0-8 3.574219-8 8v8h-32c-4.425781 0-8 3.574219-8 8v48c0 2.128906.839844 4.160156 2.34375 5.65625l29.65625 29.65625v20.6875c0 22.871094 12.105469 42.929688 30.199219 54.238281l-.511719 2.050781-47.703125 8.671876c-26.648437 4.847656-45.984375 28.015624-45.984375 55.101562v87.9375c0 4.425781 3.574219 8 8 8h480c4.425781 0 8-3.574219 8-8v-87.9375c0-27.085938-19.335938-50.253906-45.984375-55.09375zm-154.015625-189.65625 10.34375 10.34375c1.496094 1.503906 3.527344 2.34375 5.65625 2.34375h96v8c0 4.425781 3.574219 8 8 8h32v36.6875l-16 16v-28.6875c0-4.425781-3.574219-8-8-8h-112c-3.441406 0-6.3125 2.191406-7.441406 5.238281l-8.558594-8.550781zm24 124.6875v-64h96v64c0 26.472656-21.527344 48-48 48s-48-21.527344-48-48zm48 64c6.625 0 13.015625-1.015625 19.03125-2.886719l4.105469 16.4375-23.136719 23.136719-23.144531-23.144531 4.105469-16.4375c6.023437 1.878906 12.414062 2.894531 19.039062 2.894531zm-160 120h32v16h-32zm-160-243.3125v-36.6875h32c4.425781 0 8-3.574219 8-8v-8h96c2.128906 0 4.160156-.839844 5.65625-2.34375l10.34375-10.34375v41.375l-8.550781 8.550781c-1.136719-3.046875-4.007813-5.238281-7.449219-5.238281h-112c-4.425781 0-8 3.574219-8 8v28.6875zm32 59.3125v-64h96v64c0 26.472656-21.527344 48-48 48s-48-21.527344-48-48zm48 64c6.625 0 13.015625-1.015625 19.03125-2.886719l4.105469 16.4375-23.136719 23.136719-23.144531-23.144531 4.105469-16.4375c6.023437 1.878906 12.414062 2.894531 19.039062 2.894531zm-79.160156 16.703125 40.585937-7.382813-1.1875 4.734376c-.6875 2.730468.121094 5.609374 2.105469 7.59375l32 32c1.558594 1.566406 3.609375 2.351562 5.65625 2.351562s4.097656-.785156 5.65625-2.34375l32-32c1.984375-1.984375 2.792969-4.863281 2.105469-7.59375l-1.1875-4.734375 40.585937 7.382813c19.023438 3.457031 32.839844 20.007812 32.839844 39.351562v47.9375h-32v-32h-16v64h-128v-64h-16v32h-32v-47.9375c0-19.34375 13.816406-35.894531 32.839844-39.359375zm-32.839844 103.296875h32v16h-32zm240 0h32v16h-32zm192 16v-16h32v16zm32-32h-32v-32h-16v64h-128v-64h-16v32h-32v-47.9375c0-19.34375 13.816406-35.894531 32.839844-39.359375l40.585937-7.382813-1.1875 4.734376c-.6875 2.730468.121094 5.609374 2.105469 7.59375l32 32c1.558594 1.566406 3.609375 2.351562 5.65625 2.351562s4.097656-.785156 5.65625-2.34375l32-32c1.984375-1.984375 2.792969-4.863281 2.105469-7.59375l-1.1875-4.734375 40.585937 7.382813c19.023438 3.457031 32.839844 20.007812 32.839844 39.351562zm0 0"/><path d="m360 416h16v16h-16zm0 0"/><path d="m360 448h16v16h-16zm0 0"/><path d="m8 112h101.574219l21.984375 14.65625c1.335937.886719 2.890625 1.34375 4.441406 1.34375 1.296875 0 2.59375-.3125 3.777344-.945312 2.597656-1.390626 4.222656-4.101563 4.222656-7.054688v-112c0-4.425781-3.574219-8-8-8h-128c-4.425781 0-8 3.574219-8 8v96c0 4.425781 3.574219 8 8 8zm8-96h112v89.054688l-11.558594-7.710938c-1.3125-.871094-2.867187-1.34375-4.441406-1.34375h-96zm0 0"/><path d="m32 48h16v16h-16zm0 0"/><path d="m64 48h16v16h-16zm0 0"/><path d="m96 48h16v16h-16zm0 0"/><path d="m488 0h-128c-4.425781 0-8 3.574219-8 8v112c0 2.953125 1.625 5.664062 4.222656 7.054688 1.183594.632812 2.480469.945312 3.777344.945312 1.550781 0 3.105469-.457031 4.441406-1.34375l21.984375-14.65625h101.574219c4.425781 0 8-3.574219 8-8v-96c0-4.425781-3.574219-8-8-8zm-8 96h-96c-1.574219 0-3.128906.472656-4.441406 1.34375l-11.558594 7.710938v-89.054688h112zm0 0"/><path d="m448 48h16v16h-16zm0 0"/><path d="m416 48h16v16h-16zm0 0"/><path d="m384 48h16v16h-16zm0 0"/></svg>