<?xml version="1.0" encoding="iso-8859-1"?>
<!-- Generator: Adobe Illustrator 19.0.0, SVG Export Plug-In . SVG Version: 6.00 Build 0)  -->
<svg version="1.1" id="Capa_1" xmlns="http://www.w3.org/2000/svg" xmlns:xlink="http://www.w3.org/1999/xlink" x="0px" y="0px"
	 viewBox="0 0 512 512" style="enable-background:new 0 0 512 512;" xml:space="preserve">
<g>
	<g>
		<polygon points="162.242,132.499 159.042,146.419 168.642,146.419 171.842,132.499 		"/>
	</g>
</g>
<g id="SVGCleanerId_0">
	<g>
		<path d="M329.198,104.499c-1.015-0.96-2.375-1.44-4.08-1.44c-1.815,0-3.228,0.56-4.24,1.68c-1.015,1.12-1.52,2.535-1.52,4.24
			c0,1.388,0.4,2.587,1.2,3.6c0.8,1.015,2.161,2.427,4.08,4.24c2.132-1.492,3.68-2.8,4.64-3.92s1.44-2.532,1.44-4.24
			C330.718,106.846,330.21,105.459,329.198,104.499z"/>
	</g>
</g>
<g>
	<g>
		<polygon points="162.242,132.499 159.042,146.419 168.642,146.419 171.842,132.499 		"/>
	</g>
</g>
<g>
	<g>
		<path d="M329.198,104.499c-1.015-0.96-2.375-1.44-4.08-1.44c-1.815,0-3.228,0.56-4.24,1.68c-1.015,1.12-1.52,2.535-1.52,4.24
			c0,1.388,0.4,2.587,1.2,3.6c0.8,1.015,2.161,2.427,4.08,4.24c2.132-1.492,3.68-2.8,4.64-3.92s1.44-2.532,1.44-4.24
			C330.718,106.846,330.21,105.459,329.198,104.499z"/>
	</g>
</g>
<g id="SVGCleanerId_1">
	<g>
		<path d="M319.679,152.499c-3.628,2.987-5.44,5.975-5.44,8.96c0,1.175,0.24,2.48,0.72,3.92c0.48,1.44,1.28,2.8,2.4,4.08
			c1.12,1.28,2.585,2.348,4.4,3.2c1.813,0.855,4,1.28,6.56,1.28c3.2,0,6.345-0.692,9.44-2.08L319.679,152.499z"/>
	</g>
</g>
<g>
	<g>
		<path d="M0,0.019v290h512v-290H0z M221.282,132.499h-25.44l-3.2,13.92h20.48v22.4h-25.92l-6.56,27.2h-24.16l6.72-27.2h-9.6
			l-6.56,27.2h-24.16l6.72-27.2h-17.92v-22.4h23.36l3.2-13.92h-18.4v-20.8h23.52l7.2-29.28h24.16l-7.36,29.28h9.6l7.2-29.28h24.16
			l-7.36,29.28h20.32V132.499z M268.48,196.019h-30.4v-29.44h30.4V196.019z M268.48,148.019h-30.4v-66.72h30.4V148.019z
			 M360.478,196.019l-6.08-6.4c-4.587,2.775-9.36,4.8-14.32,6.08c-4.96,1.28-9.948,1.92-14.96,1.92c-6.615,0-12.4-1.067-17.36-3.2
			c-4.96-2.132-9.12-4.905-12.48-8.32c-3.36-3.413-5.895-7.28-7.6-11.6c-1.708-4.32-2.56-8.665-2.56-13.04
			c0-6.505,1.572-12.132,4.72-16.88c3.145-4.745,6.905-8.88,11.28-12.4c-3.415-4.16-5.815-7.865-7.2-11.12
			c-1.387-3.252-2.08-6.853-2.08-10.8c0-4.585,0.853-8.72,2.56-12.4c1.705-3.68,4.025-6.745,6.96-9.2
			c2.933-2.453,6.425-4.345,10.48-5.68c4.053-1.333,8.48-2,13.28-2c4.16,0,8.24,0.507,12.24,1.52c4,1.015,7.573,2.615,10.72,4.8
			c3.145,2.188,5.68,5.015,7.6,8.48c1.92,3.468,2.88,7.655,2.88,12.56c0,5.76-1.335,10.935-4,15.52
			c-2.667,4.588-6.24,8.8-10.72,12.64l13.12,13.92c1.172-2.985,2.08-6.212,2.72-9.68c0.64-3.465,0.96-7.225,0.96-11.28h24.48
			c-0.107,8.215-1.067,15.6-2.88,22.16c-1.815,6.56-4.268,12.455-7.36,17.68l25.44,26.72H360.478z"/>
	</g>
</g>
<g>
	<g>
		<path d="M319.679,152.499c-3.628,2.987-5.44,5.975-5.44,8.96c0,1.175,0.24,2.48,0.72,3.92c0.48,1.44,1.28,2.8,2.4,4.08
			c1.12,1.28,2.585,2.348,4.4,3.2c1.813,0.855,4,1.28,6.56,1.28c3.2,0,6.345-0.692,9.44-2.08L319.679,152.499z"/>
	</g>
</g>
<g>
	<g>
		<polygon points="410.376,331.019 310.825,331.019 317.44,320.019 146.154,320.019 115.488,380.019 190.683,380.019 
			112.531,511.981 		"/>
	</g>
</g>
<g>
</g>
<g>
</g>
<g>
</g>
<g>
</g>
<g>
</g>
<g>
</g>
<g>
</g>
<g>
</g>
<g>
</g>
<g>
</g>
<g>
</g>
<g>
</g>
<g>
</g>
<g>
</g>
<g>
</g>
</svg>
