<?xml version="1.0" encoding="iso-8859-1"?>
<!-- Generator: Adobe Illustrator 16.0.0, SVG Export Plug-In . SVG Version: 6.00 Build 0)  -->
<!DOCTYPE svg PUBLIC "-//W3C//DTD SVG 1.1//EN" "http://www.w3.org/Graphics/SVG/1.1/DTD/svg11.dtd">
<svg version="1.1" id="Capa_1" xmlns="http://www.w3.org/2000/svg" xmlns:xlink="http://www.w3.org/1999/xlink" x="0px" y="0px"
	 width="31.463px" height="31.463px" viewBox="0 0 31.463 31.463" style="enable-background:new 0 0 31.463 31.463;"
	 xml:space="preserve">
<g>
	<circle cx="15.698" cy="2.644" r="2.644"/>
	<path d="M21.396,8.791c0,0,0.148-2.953-2.968-2.953h-5.403c-3.005,0-2.983,2.727-2.985,2.953l0.001,8.38
		c0.049,0.452,0.495,0.967,1.049,0.967c0.551,0,0.956-0.499,1.006-0.952l0.938,13.346c0.069,0.679,0.549,0.932,1.139,0.932
		c0.589,0,1.068-0.253,1.137-0.932h0.833c0.072,0.679,0.55,0.932,1.137,0.932c0.591,0,1.07-0.253,1.141-0.932l0.966-13.354
		c0,0.453,0.438,0.963,0.992,0.963c0.552,0,0.993-0.517,1.042-0.969L21.396,8.791z"/>
</g>
<g>
</g>
<g>
</g>
<g>
</g>
<g>
</g>
<g>
</g>
<g>
</g>
<g>
</g>
<g>
</g>
<g>
</g>
<g>
</g>
<g>
</g>
<g>
</g>
<g>
</g>
<g>
</g>
<g>
</g>
</svg>
